<?xml version="1.0" encoding="UTF-8"?>
<svg id="Calque_1" data-name="Calque 1" xmlns="http://www.w3.org/2000/svg" viewBox="0 0 2000 2000">
  <defs>
    <style>
      .cls-1, .cls-2 {
        stroke-width: 0px;
      }

      .cls-2 {
        fill: #fff;
      }
    </style>
  </defs>
  <g>
    <rect class="cls-2" x="1294.37" y="117.63" width="117.63" height="117.66"/>
    <rect class="cls-2" x="706.12" y="117.63" width="117.66" height="117.66"/>
    <rect class="cls-2" x="588.49" y="117.63" width="117.63" height="117.66"/>
    <rect class="cls-2" x="1059.08" y="117.63" width="117.63" height="117.66"/>
    <rect class="cls-2" x="823.79" y="117.63" width="117.63" height="117.66"/>
    <rect class="cls-2" x="941.42" y="117.63" width="117.66" height="117.66"/>
    <rect class="cls-2" x="1176.71" y="117.63" width="117.66" height="117.66"/>
    <rect class="cls-2" x="1529.66" y="235.29" width="117.63" height="117.63"/>
    <rect class="cls-2" x="1647.29" y="352.92" width="117.66" height="117.66"/>
    <rect class="cls-2" x="1529.66" y="352.92" width="117.63" height="117.66"/>
    <rect class="cls-2" x="1412" y="352.92" width="117.66" height="117.66"/>
    <rect class="cls-2" x="1647.29" y="705.88" width="117.66" height="117.63"/>
    <rect class="cls-2" x="1647.29" y="823.51" width="117.66" height="117.66"/>
    <rect class="cls-2" x="1529.66" y="588.21" width="117.63" height="117.66"/>
    <rect class="cls-2" x="1529.66" y="705.88" width="117.63" height="117.63"/>
    <rect class="cls-2" x="1529.66" y="823.51" width="117.63" height="117.66"/>
    <rect class="cls-2" x="1647.29" y="588.21" width="117.66" height="117.66"/>
    <rect class="cls-2" x="1294.37" y="705.88" width="117.63" height="117.63"/>
    <rect class="cls-2" x="1294.37" y="823.51" width="117.63" height="117.66"/>
    <rect class="cls-2" x="1412" y="588.21" width="117.66" height="117.66"/>
    <rect class="cls-2" x="1412" y="823.51" width="117.66" height="117.66"/>
    <rect class="cls-2" x="1412" y="705.88" width="117.66" height="117.63"/>
    <rect class="cls-2" x="1764.96" y="588.21" width="117.63" height="117.66"/>
    <rect class="cls-2" x="1764.96" y="705.88" width="117.63" height="117.63"/>
    <rect class="cls-2" x="1764.96" y="823.51" width="117.63" height="117.66"/>
    <rect class="cls-2" x="1647.29" y="470.58" width="117.66" height="117.63"/>
    <rect class="cls-2" x="1529.66" y="470.58" width="117.63" height="117.63"/>
    <rect class="cls-2" x="1412" y="235.29" width="117.66" height="117.63"/>
    <rect class="cls-2" x="1294.37" y="235.29" width="117.63" height="117.63"/>
    <rect class="cls-2" x="1294.37" y="352.92" width="117.63" height="117.66"/>
    <rect class="cls-2" x="1294.37" y="470.58" width="117.63" height="117.63"/>
    <rect class="cls-2" x="1294.37" y="588.21" width="117.63" height="117.66"/>
    <rect class="cls-2" x="1412" y="470.58" width="117.66" height="117.63"/>
    <rect class="cls-2" x="470.83" y="235.29" width="117.66" height="117.63"/>
    <rect class="cls-2" x="706.12" y="235.29" width="117.66" height="117.63"/>
    <rect class="cls-2" x="588.49" y="235.29" width="117.63" height="117.63"/>
    <rect class="cls-2" x="823.79" y="235.29" width="117.63" height="117.63"/>
    <rect class="cls-2" x="941.42" y="235.29" width="117.66" height="117.63"/>
    <rect class="cls-2" x="941.42" y="352.92" width="117.66" height="117.66"/>
    <rect class="cls-2" x="1059.08" y="352.92" width="117.63" height="117.66"/>
    <rect class="cls-2" x="1059.08" y="235.29" width="117.63" height="117.63"/>
    <rect class="cls-2" x="1176.71" y="235.29" width="117.66" height="117.63"/>
    <rect class="cls-2" x="1176.71" y="352.92" width="117.66" height="117.66"/>
    <rect class="cls-2" x="1176.71" y="470.58" width="117.66" height="117.63"/>
    <rect class="cls-2" x="1176.71" y="823.51" width="117.66" height="117.66"/>
    <rect class="cls-2" x="1176.71" y="705.88" width="117.66" height="117.63"/>
    <rect class="cls-2" x="1176.71" y="588.21" width="117.66" height="117.66"/>
    <rect class="cls-2" x="706.12" y="352.92" width="117.66" height="117.66"/>
    <rect class="cls-2" x="823.79" y="470.58" width="117.63" height="117.63"/>
    <rect class="cls-2" x="823.79" y="352.92" width="117.63" height="117.66"/>
    <rect class="cls-2" x="941.42" y="470.58" width="117.66" height="117.63"/>
    <rect class="cls-2" x="941.42" y="588.21" width="117.66" height="117.66"/>
    <rect class="cls-2" x="1059.08" y="705.88" width="117.63" height="117.63"/>
    <rect class="cls-2" x="1059.08" y="470.58" width="117.63" height="117.63"/>
    <rect class="cls-2" x="1059.08" y="588.21" width="117.63" height="117.66"/>
    <rect class="cls-2" x="235.54" y="352.92" width="117.66" height="117.66"/>
    <rect class="cls-2" x="235.54" y="470.58" width="117.66" height="117.63"/>
    <rect class="cls-2" x="353.2" y="352.92" width="117.63" height="117.66"/>
    <rect class="cls-2" x="353.2" y="470.58" width="117.63" height="117.63"/>
    <rect class="cls-2" x="470.83" y="470.58" width="117.66" height="117.63"/>
    <rect class="cls-2" x="117.91" y="588.21" width="117.63" height="117.66"/>
    <rect class="cls-2" x="117.91" y="705.88" width="117.63" height="117.63"/>
    <rect class="cls-2" x="117.91" y="823.51" width="117.63" height="117.66"/>
    <rect class="cls-2" x="117.91" y="941.17" width="117.63" height="117.63"/>
    <rect class="cls-2" x="235.54" y="823.51" width="117.66" height="117.66"/>
    <rect class="cls-2" x="235.54" y="588.21" width="117.66" height="117.66"/>
    <rect class="cls-2" x="235.54" y="705.88" width="117.66" height="117.63"/>
    <rect class="cls-2" x="235.54" y="941.17" width="117.66" height="117.63"/>
    <rect class="cls-2" x="1412" y="1176.46" width="117.66" height="117.63"/>
    <rect class="cls-2" x="1529.66" y="1176.46" width="117.63" height="117.63"/>
    <rect class="cls-2" x="1412" y="1294.09" width="117.66" height="117.66"/>
    <rect class="cls-2" x="1529.66" y="1294.09" width="117.63" height="117.66"/>
    <rect class="cls-2" x="1647.29" y="941.17" width="117.66" height="117.63"/>
    <rect class="cls-2" x="1529.66" y="1058.8" width="117.63" height="117.66"/>
    <rect class="cls-2" x="1529.66" y="941.17" width="117.63" height="117.63"/>
    <rect class="cls-2" x="1412" y="1058.8" width="117.66" height="117.66"/>
    <rect class="cls-2" x="1294.37" y="941.17" width="117.63" height="117.63"/>
    <rect class="cls-2" x="1294.37" y="1058.8" width="117.63" height="117.66"/>
    <rect class="cls-2" x="1294.37" y="1294.09" width="117.63" height="117.66"/>
    <rect class="cls-2" x="1412" y="941.17" width="117.66" height="117.63"/>
    <rect class="cls-2" x="1647.29" y="1176.46" width="117.66" height="117.63"/>
    <rect class="cls-2" x="1764.96" y="1294.09" width="117.63" height="117.66"/>
    <rect class="cls-2" x="1764.96" y="1176.46" width="117.63" height="117.63"/>
    <rect class="cls-2" x="1764.96" y="1058.8" width="117.63" height="117.66"/>
    <rect class="cls-2" x="1764.96" y="941.17" width="117.63" height="117.63"/>
    <rect class="cls-2" x="1647.29" y="1058.8" width="117.66" height="117.66"/>
    <rect class="cls-2" x="1647.29" y="1294.09" width="117.66" height="117.66"/>
    <rect class="cls-2" x="235.54" y="1176.46" width="117.66" height="117.63"/>
    <rect class="cls-2" x="235.54" y="1294.09" width="117.66" height="117.66"/>
    <rect class="cls-2" x="117.91" y="1176.46" width="117.63" height="117.63"/>
    <rect class="cls-2" x="117.91" y="1058.8" width="117.63" height="117.66"/>
    <rect class="cls-2" x="117.91" y="1294.09" width="117.63" height="117.66"/>
    <rect class="cls-2" x="235.54" y="1058.8" width="117.66" height="117.66"/>
    <rect class="cls-2" x="1176.71" y="1294.09" width="117.66" height="117.66"/>
    <rect class="cls-2" x="1176.71" y="941.17" width="117.66" height="117.63"/>
    <rect class="cls-2" x="353.2" y="1176.46" width="117.63" height="117.63"/>
    <rect class="cls-2" x="353.2" y="1294.09" width="117.63" height="117.66"/>
    <rect class="cls-2" x="706.12" y="1294.09" width="117.66" height="117.66"/>
    <rect class="cls-2" x="823.79" y="1294.09" width="117.63" height="117.66"/>
    <rect class="cls-2" x="1059.08" y="823.51" width="117.63" height="117.66"/>
    <rect class="cls-2" x="1412" y="1411.75" width="117.66" height="117.66"/>
    <rect class="cls-2" x="1529.66" y="1411.75" width="117.63" height="117.66"/>
    <rect class="cls-2" x="1294.37" y="1411.75" width="117.63" height="117.66"/>
    <rect class="cls-2" x="1647.29" y="1411.75" width="117.66" height="117.66"/>
    <rect class="cls-2" x="235.54" y="1411.75" width="117.66" height="117.66"/>
    <rect class="cls-2" x="1176.71" y="1411.75" width="117.66" height="117.66"/>
    <rect class="cls-2" x="470.83" y="1411.75" width="117.66" height="117.66"/>
    <rect class="cls-2" x="588.49" y="1411.75" width="117.63" height="117.66"/>
    <rect class="cls-2" x="353.2" y="1411.75" width="117.63" height="117.66"/>
    <rect class="cls-2" x="706.12" y="1411.75" width="117.66" height="117.66"/>
    <rect class="cls-2" x="823.79" y="1411.75" width="117.63" height="117.66"/>
    <rect class="cls-2" x="941.42" y="1411.75" width="117.66" height="117.66"/>
    <rect class="cls-2" x="1059.08" y="1411.75" width="117.63" height="117.66"/>
    <rect class="cls-2" x="1412" y="1529.42" width="117.66" height="117.63"/>
    <rect class="cls-2" x="1529.66" y="1529.42" width="117.63" height="117.63"/>
    <rect class="cls-2" x="1294.37" y="1529.42" width="117.63" height="117.63"/>
    <rect class="cls-2" x="1647.29" y="1529.42" width="117.66" height="117.63"/>
    <rect class="cls-2" x="235.54" y="1529.42" width="117.66" height="117.63"/>
    <rect class="cls-2" x="1176.71" y="1529.42" width="117.66" height="117.63"/>
    <rect class="cls-2" x="353.2" y="1529.42" width="117.63" height="117.63"/>
    <rect class="cls-2" x="470.83" y="1529.42" width="117.66" height="117.63"/>
    <rect class="cls-2" x="588.49" y="1529.42" width="117.63" height="117.63"/>
    <rect class="cls-2" x="706.12" y="1529.42" width="117.66" height="117.63"/>
    <rect class="cls-2" x="823.79" y="1529.42" width="117.63" height="117.63"/>
    <rect class="cls-2" x="941.42" y="1529.42" width="117.66" height="117.63"/>
    <rect class="cls-2" x="1059.08" y="1529.42" width="117.63" height="117.63"/>
    <rect class="cls-2" x="941.42" y="1647.05" width="117.66" height="117.66"/>
    <rect class="cls-2" x="1529.66" y="1647.05" width="117.63" height="117.66"/>
    <rect class="cls-2" x="1412" y="1647.05" width="117.66" height="117.66"/>
    <rect class="cls-2" x="1294.37" y="1647.05" width="117.63" height="117.66"/>
    <rect class="cls-2" x="1176.71" y="1647.05" width="117.66" height="117.66"/>
    <rect class="cls-2" x="353.2" y="1647.05" width="117.63" height="117.66"/>
    <rect class="cls-2" x="470.83" y="1647.05" width="117.66" height="117.66"/>
    <rect class="cls-2" x="588.49" y="1647.05" width="117.63" height="117.66"/>
    <rect class="cls-2" x="706.12" y="1647.05" width="117.66" height="117.66"/>
    <rect class="cls-2" x="823.79" y="1647.05" width="117.63" height="117.66"/>
    <rect class="cls-2" x="1059.08" y="1647.05" width="117.63" height="117.66"/>
    <rect class="cls-2" x="1176.71" y="1764.71" width="117.66" height="117.63"/>
    <rect class="cls-2" x="1294.37" y="1764.71" width="117.63" height="117.63"/>
    <rect class="cls-2" x="588.49" y="1764.71" width="117.63" height="117.63"/>
    <rect class="cls-2" x="706.12" y="1764.71" width="117.66" height="117.63"/>
    <rect class="cls-2" x="941.42" y="1764.71" width="117.66" height="117.63"/>
    <rect class="cls-2" x="823.79" y="1764.71" width="117.63" height="117.63"/>
    <rect class="cls-2" x="1059.08" y="1764.71" width="117.63" height="117.63"/>
    <rect class="cls-2" x="588.49" y="1294.09" width="117.63" height="117.66"/>
    <rect class="cls-2" x="470.83" y="1294.09" width="117.66" height="117.66"/>
    <rect class="cls-2" x="706.12" y="1176.46" width="117.66" height="117.63"/>
    <rect class="cls-2" x="823.79" y="1058.8" width="117.63" height="117.66"/>
    <rect class="cls-2" x="941.42" y="1058.8" width="117.66" height="117.66"/>
    <rect class="cls-2" x="941.42" y="1176.46" width="117.66" height="117.63"/>
    <rect class="cls-2" x="941.42" y="941.17" width="117.66" height="117.63"/>
    <rect class="cls-2" x="1059.08" y="1176.46" width="117.63" height="117.63"/>
    <rect class="cls-2" x="1059.08" y="1058.8" width="117.63" height="117.66"/>
    <rect class="cls-2" x="1294.37" y="1176.46" width="117.63" height="117.63"/>
    <rect class="cls-2" x="353.2" y="235.29" width="117.63" height="117.63"/>
    <rect class="cls-2" x="1176.71" y="1176.46" width="117.66" height="117.63"/>
    <rect class="cls-2" x="1176.71" y="1058.8" width="117.66" height="117.66"/>
    <rect class="cls-2" x="706.12" y="705.88" width="117.66" height="117.63"/>
    <rect class="cls-2" x="706.12" y="588.21" width="117.66" height="117.66"/>
    <rect class="cls-2" x="470.83" y="941.17" width="117.66" height="117.63"/>
    <rect class="cls-2" x="588.49" y="941.17" width="117.63" height="117.63"/>
    <rect class="cls-2" x="706.12" y="823.51" width="117.66" height="117.66"/>
    <rect class="cls-2" x="588.49" y="470.58" width="117.63" height="117.63"/>
    <rect class="cls-2" x="353.2" y="588.21" width="117.63" height="117.66"/>
    <rect class="cls-2" x="353.2" y="941.17" width="117.63" height="117.63"/>
    <rect class="cls-2" x="588.49" y="1058.8" width="117.63" height="117.66"/>
    <rect class="cls-2" x="470.83" y="352.92" width="117.66" height="117.66"/>
    <rect class="cls-2" x="588.49" y="352.92" width="117.63" height="117.66"/>
    <rect class="cls-2" x="706.12" y="470.58" width="117.66" height="117.63"/>
    <rect class="cls-2" x="470.83" y="1058.8" width="117.66" height="117.66"/>
    <rect class="cls-2" x="470.83" y="588.21" width="117.66" height="117.66"/>
    <rect class="cls-2" x="353.2" y="823.51" width="117.63" height="117.66"/>
    <rect class="cls-2" x="470.83" y="705.88" width="117.66" height="117.63"/>
    <rect class="cls-2" x="353.2" y="705.88" width="117.63" height="117.63"/>
    <rect class="cls-2" x="588.49" y="823.51" width="117.63" height="117.66"/>
    <rect class="cls-2" x="588.49" y="705.88" width="117.63" height="117.63"/>
    <rect class="cls-2" x="588.49" y="588.21" width="117.63" height="117.66"/>
    <rect class="cls-2" x="470.83" y="823.51" width="117.66" height="117.66"/>
    <rect class="cls-2" x="470.83" y="1176.46" width="117.66" height="117.63"/>
    <rect class="cls-2" x="588.49" y="1176.46" width="117.63" height="117.63"/>
    <rect class="cls-2" x="706.12" y="1058.8" width="117.66" height="117.66"/>
    <rect class="cls-2" x="706.12" y="941.17" width="117.66" height="117.63"/>
    <rect class="cls-2" x="823.79" y="588.21" width="117.63" height="117.66"/>
    <rect class="cls-2" x="823.79" y="823.51" width="117.63" height="117.66"/>
    <rect class="cls-2" x="823.79" y="705.88" width="117.63" height="117.63"/>
    <rect class="cls-2" x="823.79" y="1176.46" width="117.63" height="117.63"/>
    <rect class="cls-2" x="823.79" y="941.17" width="117.63" height="117.63"/>
    <rect class="cls-2" x="1059.08" y="941.17" width="117.63" height="117.63"/>
    <rect class="cls-2" x="941.42" y="1294.09" width="117.66" height="117.66"/>
    <rect class="cls-2" x="941.42" y="705.88" width="117.66" height="117.63"/>
    <rect class="cls-2" x="941.42" y="823.51" width="117.66" height="117.66"/>
    <rect class="cls-2" x="1059.08" y="1294.09" width="117.63" height="117.66"/>
    <rect class="cls-2" x="353.2" y="1058.8" width="117.63" height="117.66"/>
    <rect class="cls-1" x="1882.58" y="1294.09" width="117.66" height="117.66"/>
    <rect class="cls-1" x="1882.58" y="1176.46" width="117.66" height="117.63"/>
    <rect class="cls-1" x="1882.58" y="1058.8" width="117.66" height="117.66"/>
    <rect class="cls-1" x="1882.58" y="941.17" width="117.66" height="117.63"/>
    <rect class="cls-1" x="1882.58" y="823.51" width="117.66" height="117.66"/>
    <rect class="cls-1" x="1882.58" y="705.88" width="117.66" height="117.63"/>
    <rect class="cls-1" x="1882.58" y="588.21" width="117.66" height="117.66"/>
    <rect class="cls-1" x="1764.96" y="1529.42" width="117.63" height="117.63"/>
    <rect class="cls-1" x="1764.96" y="1411.75" width="117.63" height="117.66"/>
    <rect class="cls-1" x="1764.96" y="470.58" width="117.63" height="117.63"/>
    <rect class="cls-1" x="1764.96" y="352.92" width="117.63" height="117.66"/>
    <rect class="cls-1" x="1647.29" y="1647.05" width="117.66" height="117.66"/>
    <rect class="cls-1" x="1647.29" y="235.29" width="117.66" height="117.63"/>
    <rect class="cls-1" x="1529.66" y="1764.71" width="117.63" height="117.63"/>
    <rect class="cls-1" x="1529.66" y="117.63" width="117.63" height="117.66"/>
    <rect class="cls-1" x="1412" y="1764.71" width="117.66" height="117.63"/>
    <rect class="cls-1" x="1412" y="117.63" width="117.66" height="117.66"/>
    <rect class="cls-1" x="1294.37" y="1882.34" width="117.63" height="117.66"/>
    <rect class="cls-1" x="1294.37" width="117.63" height="117.63"/>
    <rect class="cls-1" x="1176.71" y="1882.34" width="117.66" height="117.66"/>
    <rect class="cls-1" x="1176.71" width="117.66" height="117.63"/>
    <rect class="cls-1" x="1059.08" y="1882.34" width="117.63" height="117.66"/>
    <rect class="cls-1" x="1059.08" width="117.63" height="117.63"/>
    <rect class="cls-1" x="941.42" y="1882.34" width="117.66" height="117.66"/>
    <rect class="cls-1" x="941.42" width="117.66" height="117.63"/>
    <rect class="cls-1" x="823.79" y="1882.34" width="117.63" height="117.66"/>
    <rect class="cls-1" x="823.79" width="117.63" height="117.63"/>
    <rect class="cls-1" x="706.12" y="1882.34" width="117.66" height="117.66"/>
    <rect class="cls-1" x="706.12" width="117.66" height="117.63"/>
    <rect class="cls-1" x="588.49" y="1882.34" width="117.63" height="117.66"/>
    <rect class="cls-1" x="588.49" width="117.63" height="117.63"/>
    <rect class="cls-1" x="470.83" y="1764.71" width="117.66" height="117.63"/>
    <rect class="cls-1" x="470.83" y="117.63" width="117.66" height="117.66"/>
    <rect class="cls-1" x="353.2" y="1764.71" width="117.63" height="117.63"/>
    <rect class="cls-1" x="353.2" y="117.63" width="117.63" height="117.66"/>
    <rect class="cls-1" x="235.54" y="1647.05" width="117.66" height="117.66"/>
    <rect class="cls-1" x="235.54" y="235.29" width="117.66" height="117.63"/>
    <rect class="cls-1" x="117.91" y="1529.42" width="117.63" height="117.63"/>
    <rect class="cls-1" x="117.91" y="1411.75" width="117.63" height="117.66"/>
    <rect class="cls-1" x="117.91" y="470.58" width="117.63" height="117.63"/>
    <rect class="cls-1" x="117.91" y="352.92" width="117.63" height="117.66"/>
    <rect class="cls-1" x=".25" y="1294.09" width="117.66" height="117.66"/>
    <rect class="cls-1" x=".25" y="1176.46" width="117.66" height="117.63"/>
    <rect class="cls-1" x=".25" y="1058.8" width="117.66" height="117.66"/>
    <rect class="cls-1" x=".25" y="941.17" width="117.66" height="117.63"/>
    <rect class="cls-1" x=".25" y="823.51" width="117.66" height="117.66"/>
    <rect class="cls-1" x=".25" y="705.88" width="117.66" height="117.63"/>
    <rect class="cls-1" x=".25" y="588.21" width="117.66" height="117.66"/>
  </g>
  <g>
    <g>
      <rect class="cls-1" x="662.51" y="1425.35" width="113.43" height="113.43"/>
      <rect class="cls-1" x="662.51" y="1085.07" width="113.43" height="113.43"/>
      <rect class="cls-1" x="662.51" y="971.64" width="113.43" height="113.43"/>
      <rect class="cls-1" x="549.09" y="1425.35" width="113.43" height="113.43"/>
      <rect class="cls-1" x="549.09" y="1198.49" width="113.43" height="113.43"/>
      <rect class="cls-1" x="549.09" y="971.64" width="113.43" height="113.43"/>
      <rect class="cls-1" x="435.66" y="1425.35" width="113.43" height="113.43"/>
      <rect class="cls-1" x="435.66" y="1311.92" width="113.43" height="113.43"/>
      <rect class="cls-1" x="435.66" y="971.64" width="113.43" height="113.43"/>
    </g>
    <g>
      <rect class="cls-1" x="1056.81" y="1198.49" width="113.43" height="113.43"/>
      <rect class="cls-1" x="1056.81" y="858.22" width="113.43" height="113.43"/>
      <rect class="cls-1" x="1056.81" y="744.79" width="113.43" height="113.43"/>
      <rect class="cls-1" x="943.38" y="1198.49" width="113.43" height="113.43"/>
      <rect class="cls-1" x="943.38" y="971.64" width="113.43" height="113.43"/>
      <rect class="cls-1" x="943.38" y="744.79" width="113.43" height="113.43"/>
      <rect class="cls-1" x="829.96" y="1198.49" width="113.43" height="113.43"/>
      <rect class="cls-1" x="829.96" y="1085.07" width="113.43" height="113.43"/>
      <rect class="cls-1" x="829.96" y="744.79" width="113.43" height="113.43"/>
    </g>
    <g>
      <rect class="cls-1" x="1451.41" y="914.93" width="113.43" height="113.43"/>
      <rect class="cls-1" x="1451.41" y="574.65" width="113.43" height="113.43"/>
      <rect class="cls-1" x="1451.41" y="461.23" width="113.43" height="113.43"/>
      <rect class="cls-1" x="1337.98" y="914.93" width="113.43" height="113.43"/>
      <rect class="cls-1" x="1337.98" y="688.08" width="113.43" height="113.43"/>
      <rect class="cls-1" x="1337.98" y="461.23" width="113.43" height="113.43"/>
      <rect class="cls-1" x="1224.56" y="914.93" width="113.43" height="113.43"/>
      <rect class="cls-1" x="1224.56" y="801.51" width="113.43" height="113.43"/>
      <rect class="cls-1" x="1224.56" y="461.23" width="113.43" height="113.43"/>
    </g>
  </g>
</svg>